<svg width="8" height="8" viewBox="0 0 8 8" fill="none" xmlns="http://www.w3.org/2000/svg">
<g clip-path="url(#clip0_33_413)">
<path d="M3.04532 6.94169C2.52504 6.94572 2.05898 6.62059 1.88314 6.1309C1.7073 5.64122 1.86006 5.09388 2.26407 4.76603C1.97751 4.5341 1.81102 4.18516 1.81102 3.8165C1.81102 3.44784 1.97751 3.0989 2.26407 2.86697C1.85993 2.53923 1.70708 1.99185 1.88295 1.50214C2.05883 1.01244 2.52501 0.687381 3.04532 0.691615H4.9547C5.47502 0.687381 5.9412 1.01244 6.11707 1.50214C6.29295 1.99185 6.1401 2.53923 5.73595 2.86697C6.13997 3.19482 6.29273 3.74216 6.11689 4.23184C5.94104 4.72153 5.47499 5.04666 4.9547 5.04259C4.71438 5.04289 4.47922 4.97294 4.27814 4.84134V5.71634C4.27521 6.39478 3.72376 6.94287 3.04532 6.94169ZM3.03845 5.04291C2.6683 5.04875 2.37242 5.35252 2.3763 5.72269C2.38018 6.09286 2.68237 6.39036 3.05256 6.38845C3.42275 6.38652 3.72184 6.08591 3.72189 5.71572V5.04291H3.03814H3.03845ZM4.95501 3.14384C4.58388 3.14574 4.28438 3.4478 4.28564 3.81894C4.2869 4.19007 4.58845 4.49009 4.95959 4.48946C5.33072 4.48883 5.63126 4.18779 5.63126 3.81666C5.62988 3.44418 5.32718 3.14315 4.9547 3.14384H4.95501ZM3.04564 3.14383C2.80526 3.14256 2.58247 3.26961 2.46117 3.47714C2.33987 3.68466 2.3385 3.94114 2.45757 4.14995C2.57665 4.35876 2.79808 4.48818 3.03845 4.48947H3.72189V3.14383H3.04564ZM4.27814 1.24478V2.59073H4.95439C5.31611 2.59241 5.61455 2.30804 5.63032 1.94666V2.08259V1.91759C5.62878 1.54556 5.32674 1.24478 4.9547 1.24478H4.27814ZM3.04501 1.24478C2.80464 1.24478 2.58253 1.37302 2.46234 1.58119C2.34215 1.78936 2.34215 2.04583 2.46234 2.254C2.58253 2.46217 2.80464 2.59041 3.04501 2.59041H3.72189V1.24478H3.04501Z" fill="#516CF7"/>
</g>
<defs>
<clipPath id="clip0_33_413">
<rect width="7.5" height="7.5" fill="white" transform="translate(0.25 0.0666504)"/>
</clipPath>
</defs>
</svg>
