<svg width="8" height="8" viewBox="0 0 8 8" fill="none" xmlns="http://www.w3.org/2000/svg">
<path d="M2.89532 6.48385C2.26339 6.48385 1.69369 6.10319 1.45182 5.51939C1.20995 4.93558 1.34355 4.26356 1.79032 3.81666L2.45344 3.15353L2.89532 3.59541L2.23251 4.25822C1.99565 4.49508 1.90315 4.8403 1.98984 5.16385C2.07654 5.4874 2.32926 5.74013 2.65281 5.82682C2.97636 5.91352 3.32159 5.82101 3.55844 5.58416L4.22126 4.92134L4.66313 5.36353L4.00032 6.02635C3.70784 6.32026 3.30996 6.48499 2.89532 6.48385ZM3.11626 5.14228L2.67438 4.70041L4.88407 2.49072L5.32594 2.93259L3.11657 5.14197L3.11626 5.14228ZM5.54719 4.47947L5.10501 4.03759L5.76782 3.37478C6.0079 3.13864 6.10288 2.79186 6.01664 2.46634C5.93041 2.14081 5.6762 1.88655 5.3507 1.80023C5.02519 1.71392 4.6784 1.80882 4.44219 2.04884L3.77907 2.71166L3.33719 2.26978L4.00032 1.60666C4.61128 1.00102 5.59687 1.00318 6.20518 1.61148C6.81348 2.21979 6.81564 3.20538 6.21001 3.81634L5.54719 4.47916V4.47947Z" fill="#516CF7"/>
</svg>
