<svg width="22" height="21" viewBox="0 0 22 21" fill="none" xmlns="http://www.w3.org/2000/svg">
<path d="M11.1421 0.0588684C5.2408 0.0588684 0.454544 4.84423 0.454544 10.7464C0.454544 15.4686 3.51653 19.4746 7.76395 20.8881C8.29744 20.9869 8.47023 20.6556 8.47023 20.3742V18.3845C5.4973 19.0311 4.87831 17.1234 4.87831 17.1234C4.39202 15.8881 3.6911 15.5594 3.6911 15.5594C2.7212 14.8959 3.76502 14.9101 3.76502 14.9101C4.83823 14.985 5.40289 16.0119 5.40289 16.0119C6.35587 17.6453 7.90289 17.1732 8.51298 16.8998C8.60827 16.2096 8.88526 15.7375 9.19164 15.4712C6.8181 15.1996 4.32256 14.2831 4.32256 10.1889C4.32256 9.02129 4.74026 8.06832 5.42338 7.32018C5.31294 7.05032 4.94689 5.96286 5.52758 4.49154C5.52758 4.49154 6.42534 4.20476 8.46755 5.58702C9.31989 5.35011 10.2337 5.23165 11.1421 5.2272C12.0506 5.23165 12.9652 5.35011 13.8194 5.58702C15.8598 4.20476 16.7558 4.49154 16.7558 4.49154C17.3373 5.96375 16.9713 7.05121 16.8609 7.32018C17.5466 8.06832 17.9608 9.02218 17.9608 10.1889C17.9608 14.2938 15.4608 15.1978 13.081 15.4623C13.464 15.7937 13.814 16.4438 13.814 17.4413V20.3742C13.814 20.6583 13.985 20.9923 14.5274 20.8872C18.7713 19.472 21.8297 15.4668 21.8297 10.7464C21.8297 4.84423 17.0443 0.0588684 11.1421 0.0588684Z" fill="#24292E"/>
</svg>
