<?xml version="1.0" encoding="UTF-8"?>
<svg xmlns="http://www.w3.org/2000/svg" xmlns:xlink="http://www.w3.org/1999/xlink" width="32px" height="32px" viewBox="0 0 32 32" version="1.1">
<g id="surface1">
<path style=" stroke:none;fill-rule:nonzero;fill:rgb(1.568627%,40.784314%,60.784314%);fill-opacity:1;" d="M 30.894531 16 C 30.894531 24.226562 24.226562 30.894531 16 30.894531 C 7.773438 30.894531 1.105469 24.226562 1.105469 16 C 1.105469 7.773438 7.773438 1.105469 16 1.105469 C 24.226562 1.105469 30.894531 7.773438 30.894531 16 Z M 30.894531 16 "/>
<path style=" stroke:none;fill-rule:nonzero;fill:rgb(100%,100%,100%);fill-opacity:1;" d="M 12.753906 21.324219 L 10.496094 21.324219 L 10.496094 14.089844 L 12.753906 14.089844 Z M 11.566406 13.183594 L 11.550781 13.183594 C 10.730469 13.183594 10.199219 12.632812 10.199219 11.925781 C 10.199219 11.210938 10.746094 10.671875 11.578125 10.671875 C 12.410156 10.671875 12.921875 11.210938 12.941406 11.921875 C 12.945312 12.632812 12.414062 13.183594 11.566406 13.183594 Z M 21.792969 21.324219 L 19.234375 21.324219 L 19.234375 17.582031 C 19.234375 16.605469 18.832031 15.9375 17.953125 15.9375 C 17.28125 15.9375 16.90625 16.382812 16.734375 16.820312 C 16.667969 16.976562 16.679688 17.191406 16.679688 17.414062 L 16.679688 21.328125 L 14.136719 21.328125 C 14.136719 21.328125 14.171875 14.703125 14.136719 14.097656 L 16.675781 14.097656 L 16.675781 15.230469 C 16.828125 14.738281 17.636719 14.027344 18.933594 14.027344 C 20.539062 14.027344 21.800781 15.070312 21.800781 17.308594 L 21.800781 21.324219 Z M 21.792969 21.324219 "/>
</g>
</svg>
