<?xml version="1.0" encoding="UTF-8"?>
<svg xmlns="http://www.w3.org/2000/svg" xmlns:xlink="http://www.w3.org/1999/xlink" width="32px" height="32px" viewBox="0 0 32 32" version="1.1">
<defs>
<linearGradient id="linear0" gradientUnits="userSpaceOnUse" x1="18.0028" y1="2.0016" x2="6.0028" y2="30" gradientTransform="matrix(0.666667,0,0,0.666667,0,0)">
<stop offset="0" style="stop-color:rgb(21.568627%,68.235294%,88.627451%);stop-opacity:1;"/>
<stop offset="1" style="stop-color:rgb(11.764706%,58.823529%,78.431373%);stop-opacity:1;"/>
</linearGradient>
</defs>
<g id="surface1">
<path style=" stroke:none;fill-rule:nonzero;fill:url(#linear0);" d="M 16 32 C 24.835938 32 32 24.835938 32 16 C 32 7.164062 24.835938 0 16 0 C 7.164062 0 0 7.164062 0 16 C 0 24.835938 7.164062 32 16 32 Z M 16 32 "/>
<path style=" stroke:none;fill-rule:nonzero;fill:rgb(100%,100%,100%);fill-opacity:1;" d="M 5.957031 16.78125 C 7.828125 15.753906 9.917969 14.890625 11.867188 14.027344 C 15.222656 12.613281 18.59375 11.222656 21.996094 9.925781 C 22.660156 9.707031 23.847656 9.488281 23.964844 10.472656 C 23.902344 11.859375 23.640625 13.242188 23.457031 14.621094 C 23 17.660156 22.472656 20.683594 21.957031 23.710938 C 21.777344 24.71875 20.515625 25.242188 19.707031 24.597656 C 17.765625 23.285156 15.808594 21.988281 13.890625 20.644531 C 13.261719 20.007812 13.84375 19.089844 14.40625 18.632812 C 16.007812 17.058594 17.703125 15.71875 19.21875 14.058594 C 19.628906 13.074219 18.417969 13.90625 18.019531 14.160156 C 15.832031 15.667969 13.695312 17.269531 11.386719 18.597656 C 10.207031 19.246094 8.832031 18.691406 7.652344 18.328125 C 6.597656 17.890625 5.046875 17.449219 5.957031 16.78125 Z M 5.957031 16.78125 "/>
</g>
</svg>
