<?xml version="1.0" encoding="UTF-8"?>
<svg xmlns="http://www.w3.org/2000/svg" xmlns:xlink="http://www.w3.org/1999/xlink" width="25px" height="25px" viewBox="0 0 25 25" version="1.1">
<g id="surface1">
<path style=" stroke:none;fill-rule:nonzero;fill:rgb(3.529412%,50.588235%,42.352941%);fill-opacity:1;" d="M 18.710938 3.847656 C 18.320312 3.390625 17.75 3.125 17.148438 3.125 L 7.859375 3.125 C 7.3125 3.125 6.785156 3.339844 6.398438 3.726562 C 6.011719 4.113281 5.792969 4.640625 5.792969 5.1875 L 5.792969 20.929688 C 5.792969 21.320312 6.035156 21.671875 6.402344 21.8125 C 6.507812 21.855469 6.625 21.875 6.738281 21.875 C 7.007812 21.875 7.265625 21.757812 7.445312 21.558594 L 12.210938 16.183594 C 12.347656 16.03125 12.539062 15.945312 12.742188 15.945312 L 15.765625 15.945312 C 16.78125 15.949219 17.648438 15.207031 17.804688 14.203125 L 19.179688 5.511719 C 19.273438 4.914062 19.101562 4.308594 18.710938 3.847656 Z M 18.710938 3.847656 "/>
<path style=" stroke:none;fill-rule:nonzero;fill:rgb(30.980392%,74.509804%,62.352941%);fill-opacity:1;" d="M 17.222656 5.550781 L 16.871094 7.984375 C 16.828125 8.210938 16.632812 8.375 16.402344 8.375 L 11.992188 8.375 C 11.738281 8.371094 11.492188 8.472656 11.308594 8.652344 C 11.128906 8.835938 11.027344 9.082031 11.027344 9.335938 C 11.035156 9.851562 11.453125 10.265625 11.96875 10.261719 L 15.960938 10.261719 C 16.097656 10.261719 16.230469 10.324219 16.320312 10.429688 C 16.410156 10.535156 16.449219 10.671875 16.425781 10.808594 L 15.980469 13.671875 C 15.941406 13.898438 15.742188 14.0625 15.511719 14.0625 L 11.996094 14.0625 C 11.726562 14.0625 11.46875 14.175781 11.289062 14.378906 L 8.097656 17.96875 C 8.03125 18.042969 7.925781 18.066406 7.835938 18.03125 C 7.746094 17.996094 7.683594 17.90625 7.683594 17.808594 L 7.683594 5.820312 C 7.683594 5.375 8.046875 5.011719 8.492188 5.011719 L 16.757812 5.011719 C 16.894531 5.011719 17.023438 5.074219 17.113281 5.175781 C 17.203125 5.277344 17.242188 5.414062 17.222656 5.550781 Z M 17.222656 5.550781 "/>
</g>
</svg>
