<?xml version="1.0" encoding="UTF-8"?>
<svg xmlns="http://www.w3.org/2000/svg" xmlns:xlink="http://www.w3.org/1999/xlink" width="25px" height="24px" viewBox="0 0 24 24" version="1.1">
<g id="surface1">
<path style=" stroke:none;fill-rule:nonzero;fill:rgb(8.627451%,8.627451%,7.843137%);fill-opacity:1;" d="M 11.953125 0 C 5.351562 0 0 5.5 0 12.289062 C 0 17.71875 3.425781 22.324219 8.175781 23.949219 C 8.773438 24.0625 8.992188 23.679688 8.992188 23.355469 C 8.992188 23.0625 8.980469 22.09375 8.976562 21.070312 C 5.648438 21.8125 4.949219 19.617188 4.949219 19.617188 C 4.402344 18.199219 3.621094 17.820312 3.621094 17.820312 C 2.535156 17.058594 3.703125 17.074219 3.703125 17.074219 C 4.902344 17.160156 5.535156 18.339844 5.535156 18.339844 C 6.601562 20.21875 8.332031 19.675781 9.011719 19.363281 C 9.121094 18.566406 9.429688 18.027344 9.773438 17.71875 C 7.117188 17.40625 4.324219 16.355469 4.324219 11.644531 C 4.324219 10.304688 4.792969 9.207031 5.558594 8.347656 C 5.433594 8.039062 5.023438 6.789062 5.671875 5.097656 C 5.671875 5.097656 6.675781 4.765625 8.960938 6.355469 C 9.914062 6.082031 10.9375 5.945312 11.953125 5.941406 C 12.96875 5.945312 13.992188 6.082031 14.949219 6.355469 C 17.230469 4.765625 18.230469 5.097656 18.230469 5.097656 C 18.882812 6.789062 18.472656 8.039062 18.347656 8.347656 C 19.117188 9.207031 19.578125 10.304688 19.578125 11.644531 C 19.578125 16.367188 16.78125 17.40625 14.121094 17.710938 C 14.550781 18.089844 14.933594 18.839844 14.933594 19.984375 C 14.933594 21.628906 14.917969 22.953125 14.917969 23.355469 C 14.917969 23.683594 15.132812 24.066406 15.738281 23.945312 C 20.488281 22.320312 23.90625 17.714844 23.90625 12.289062 C 23.90625 5.5 18.554688 0 11.953125 0 "/>
<path style=" stroke:none;fill-rule:nonzero;fill:rgb(8.627451%,8.627451%,7.843137%);fill-opacity:1;" d="M 4.476562 17.503906 C 4.449219 17.566406 4.355469 17.582031 4.273438 17.542969 C 4.183594 17.5 4.136719 17.417969 4.164062 17.355469 C 4.191406 17.292969 4.285156 17.277344 4.371094 17.320312 C 4.457031 17.359375 4.507812 17.441406 4.476562 17.503906 M 5.066406 18.042969 C 5.007812 18.097656 4.898438 18.074219 4.820312 17.988281 C 4.742188 17.902344 4.726562 17.785156 4.785156 17.730469 C 4.84375 17.675781 4.953125 17.703125 5.03125 17.789062 C 5.109375 17.875 5.125 17.988281 5.066406 18.042969 M 5.46875 18.734375 C 5.394531 18.785156 5.273438 18.738281 5.203125 18.628906 C 5.128906 18.519531 5.128906 18.386719 5.203125 18.335938 C 5.277344 18.28125 5.394531 18.328125 5.46875 18.4375 C 5.542969 18.550781 5.542969 18.679688 5.46875 18.734375 M 6.152344 19.53125 C 6.085938 19.605469 5.945312 19.585938 5.84375 19.484375 C 5.738281 19.386719 5.710938 19.246094 5.777344 19.171875 C 5.839844 19.097656 5.980469 19.117188 6.085938 19.21875 C 6.1875 19.316406 6.21875 19.460938 6.152344 19.53125 M 7.03125 19.800781 C 7.003906 19.898438 6.867188 19.941406 6.734375 19.902344 C 6.597656 19.859375 6.511719 19.746094 6.539062 19.648438 C 6.566406 19.554688 6.699219 19.507812 6.835938 19.550781 C 6.972656 19.59375 7.058594 19.703125 7.03125 19.800781 M 8.035156 19.917969 C 8.039062 20.019531 7.925781 20.101562 7.78125 20.105469 C 7.640625 20.109375 7.523438 20.027344 7.523438 19.925781 C 7.523438 19.824219 7.632812 19.738281 7.777344 19.738281 C 7.917969 19.734375 8.035156 19.816406 8.035156 19.917969 M 9.019531 19.878906 C 9.039062 19.976562 8.941406 20.078125 8.796875 20.105469 C 8.660156 20.132812 8.53125 20.070312 8.511719 19.972656 C 8.496094 19.871094 8.597656 19.769531 8.734375 19.742188 C 8.875 19.71875 9.003906 19.777344 9.019531 19.878906 "/>
</g>
</svg>
