<?xml version="1.0" encoding="UTF-8"?>
<svg xmlns="http://www.w3.org/2000/svg" xmlns:xlink="http://www.w3.org/1999/xlink" width="25px" height="33px" viewBox="0 0 25 33" version="1.1">
<g id="surface1">
<path style=" stroke:none;fill-rule:nonzero;fill:rgb(61.568627%,61.568627%,61.176471%);fill-opacity:1;" d="M 19.039062 10.929688 L 19.050781 14.941406 C 19.050781 14.941406 20.878906 14.277344 23.277344 11.65625 C 24.074219 10.785156 24.445312 9.613281 24.367188 8.785156 C 24.257812 7.675781 24.007812 7.058594 22.679688 6.71875 C 21.960938 8.625 19.039062 10.929688 19.039062 10.929688 Z M 19.039062 10.929688 "/>
<path style=" stroke:none;fill-rule:nonzero;fill:rgb(61.568627%,61.568627%,61.176471%);fill-opacity:1;" d="M 3.128906 15.832031 C 2.734375 16.722656 2.660156 17.539062 3.074219 18.277344 C 3.378906 18.820312 3.902344 19.355469 4.816406 19.539062 C 5.917969 19.765625 6.875 19.703125 6.875 19.703125 L 6.875 16.191406 C 6.875 16.191406 5.679688 16.167969 4.742188 16.167969 C 4.128906 16.179688 3.652344 15.917969 3.128906 15.832031 Z M 3.128906 15.832031 "/>
<path style=" stroke:none;fill-rule:nonzero;fill:rgb(21.176471%,66.27451%,88.235294%);fill-opacity:1;" d="M 7.769531 10.765625 L 7.769531 25.105469 L 12.359375 25.128906 L 12.371094 8.351562 C 10.710938 9.113281 9.578125 9.632812 7.769531 10.765625 Z M 7.769531 10.765625 "/>
<path style=" stroke:none;fill-rule:nonzero;fill:rgb(21.176471%,66.27451%,88.235294%);fill-opacity:1;" d="M 12.335938 2.339844 L 12.347656 0.0117188 L 7.792969 0.0117188 L 7.792969 4.394531 C 9.089844 3.707031 10.136719 3.101562 12.335938 2.339844 Z M 12.335938 2.339844 "/>
<path style=" stroke:none;fill-rule:nonzero;fill:rgb(18.431373%,66.666667%,88.235294%);fill-opacity:1;" d="M 0.457031 28.324219 L 0.457031 31.835938 L 0 31.835938 L 0 28.324219 Z M 0.457031 28.324219 "/>
<path style=" stroke:none;fill-rule:nonzero;fill:rgb(18.431373%,66.666667%,88.235294%);fill-opacity:1;" d="M 1.917969 28.714844 L 0.851562 28.714844 L 0.851562 28.335938 L 3.453125 28.335938 L 3.453125 28.714844 L 2.375 28.714844 L 2.375 31.835938 L 1.917969 31.835938 Z M 1.917969 28.714844 "/>
<path style=" stroke:none;fill-rule:nonzero;fill:rgb(18.431373%,66.666667%,88.235294%);fill-opacity:1;" d="M 4.621094 30.257812 L 4.621094 30.59375 L 3.335938 30.59375 L 3.335938 30.257812 Z M 4.621094 30.257812 "/>
<path style=" stroke:none;fill-rule:nonzero;fill:rgb(18.431373%,66.666667%,88.235294%);fill-opacity:1;" d="M 5.722656 30.726562 L 5.351562 31.824219 L 4.882812 31.824219 L 6.082031 28.3125 L 6.625 28.3125 L 7.824219 31.824219 L 7.335938 31.824219 L 6.976562 30.726562 Z M 6.875 30.378906 L 6.527344 29.367188 C 6.453125 29.140625 6.398438 28.933594 6.34375 28.726562 L 6.332031 28.726562 C 6.277344 28.933594 6.222656 29.148438 6.15625 29.355469 L 5.808594 30.367188 L 6.875 30.367188 Z M 6.875 30.378906 "/>
<path style=" stroke:none;fill-rule:nonzero;fill:rgb(18.431373%,66.666667%,88.235294%);fill-opacity:1;" d="M 10.070312 31.738281 C 9.949219 31.800781 9.6875 31.878906 9.339844 31.878906 C 8.578125 31.878906 8.085938 31.367188 8.085938 30.59375 C 8.085938 29.824219 8.621094 29.257812 9.4375 29.257812 C 9.710938 29.257812 9.949219 29.324219 10.070312 29.390625 L 9.960938 29.746094 C 9.851562 29.683594 9.675781 29.628906 9.425781 29.628906 C 8.847656 29.628906 8.53125 30.050781 8.53125 30.585938 C 8.53125 31.171875 8.902344 31.53125 9.40625 31.53125 C 9.667969 31.53125 9.839844 31.464844 9.972656 31.410156 Z M 10.070312 31.738281 "/>
<path style=" stroke:none;fill-rule:nonzero;fill:rgb(18.431373%,66.666667%,88.235294%);fill-opacity:1;" d="M 12.007812 31.835938 L 11.976562 31.519531 L 11.964844 31.519531 C 11.824219 31.714844 11.550781 31.890625 11.191406 31.890625 C 10.679688 31.890625 10.417969 31.53125 10.417969 31.160156 C 10.417969 30.550781 10.964844 30.214844 11.933594 30.226562 L 11.933594 30.171875 C 11.933594 29.964844 11.878906 29.585938 11.355469 29.585938 C 11.117188 29.585938 10.875 29.660156 10.703125 29.769531 L 10.59375 29.464844 C 10.800781 29.335938 11.105469 29.238281 11.421875 29.238281 C 12.195312 29.238281 12.378906 29.757812 12.378906 30.269531 L 12.378906 31.214844 C 12.378906 31.433594 12.390625 31.648438 12.421875 31.8125 L 12.007812 31.8125 Z M 11.933594 30.550781 C 11.433594 30.542969 10.867188 30.628906 10.867188 31.117188 C 10.867188 31.410156 11.0625 31.550781 11.300781 31.550781 C 11.628906 31.550781 11.835938 31.347656 11.910156 31.128906 C 11.921875 31.085938 11.933594 31.03125 11.933594 30.988281 Z M 11.933594 30.550781 "/>
<path style=" stroke:none;fill-rule:nonzero;fill:rgb(18.431373%,66.666667%,88.235294%);fill-opacity:1;" d="M 15.300781 28.136719 L 15.300781 31.183594 C 15.300781 31.410156 15.300781 31.660156 15.324219 31.835938 L 14.910156 31.835938 L 14.886719 31.398438 L 14.875 31.398438 C 14.734375 31.683594 14.429688 31.890625 14.015625 31.890625 C 13.40625 31.890625 12.9375 31.378906 12.9375 30.605469 C 12.9375 29.769531 13.449219 29.246094 14.070312 29.246094 C 14.449219 29.246094 14.710938 29.433594 14.832031 29.628906 L 14.84375 29.628906 L 14.84375 28.128906 L 15.300781 28.128906 Z M 14.84375 30.335938 C 14.84375 30.28125 14.84375 30.203125 14.820312 30.140625 C 14.757812 29.84375 14.503906 29.605469 14.15625 29.605469 C 13.675781 29.605469 13.40625 30.019531 13.40625 30.585938 C 13.40625 31.097656 13.65625 31.519531 14.144531 31.519531 C 14.449219 31.519531 14.734375 31.3125 14.820312 30.976562 C 14.832031 30.910156 14.84375 30.847656 14.84375 30.78125 Z M 14.84375 30.335938 "/>
<path style=" stroke:none;fill-rule:nonzero;fill:rgb(18.431373%,66.666667%,88.235294%);fill-opacity:1;" d="M 16.3125 30.660156 C 16.324219 31.28125 16.71875 31.53125 17.1875 31.53125 C 17.511719 31.53125 17.710938 31.476562 17.882812 31.398438 L 17.960938 31.726562 C 17.796875 31.800781 17.523438 31.878906 17.121094 31.878906 C 16.347656 31.878906 15.878906 31.367188 15.878906 30.605469 C 15.878906 29.84375 16.324219 29.246094 17.066406 29.246094 C 17.894531 29.246094 18.113281 29.976562 18.113281 30.433594 C 18.113281 30.53125 18.101562 30.59375 18.101562 30.648438 L 16.3125 30.648438 Z M 17.664062 30.324219 C 17.675781 30.03125 17.546875 29.585938 17.035156 29.585938 C 16.566406 29.585938 16.367188 30.007812 16.324219 30.324219 Z M 17.664062 30.324219 "/>
<path style=" stroke:none;fill-rule:nonzero;fill:rgb(18.431373%,66.666667%,88.235294%);fill-opacity:1;" d="M 18.679688 29.996094 C 18.679688 29.738281 18.679688 29.519531 18.65625 29.3125 L 19.0625 29.3125 L 19.082031 29.714844 L 19.09375 29.714844 C 19.234375 29.476562 19.464844 29.246094 19.890625 29.246094 C 20.238281 29.246094 20.5 29.453125 20.609375 29.746094 L 20.617188 29.746094 C 20.695312 29.605469 20.792969 29.496094 20.902344 29.421875 C 21.054688 29.3125 21.21875 29.246094 21.457031 29.246094 C 21.796875 29.246094 22.285156 29.464844 22.285156 30.34375 L 22.285156 31.824219 L 21.839844 31.824219 L 21.839844 30.398438 C 21.839844 29.910156 21.664062 29.628906 21.292969 29.628906 C 21.03125 29.628906 20.824219 29.824219 20.75 30.042969 C 20.726562 30.105469 20.71875 30.183594 20.71875 30.269531 L 20.71875 31.824219 L 20.269531 31.824219 L 20.269531 30.3125 C 20.269531 29.910156 20.097656 29.617188 19.746094 29.617188 C 19.464844 29.617188 19.257812 29.84375 19.179688 30.074219 C 19.160156 30.140625 19.148438 30.214844 19.148438 30.300781 L 19.148438 31.824219 L 18.699219 31.824219 L 18.699219 29.996094 Z M 18.679688 29.996094 "/>
<path style=" stroke:none;fill-rule:nonzero;fill:rgb(18.431373%,66.666667%,88.235294%);fill-opacity:1;" d="M 23.125 29.3125 L 23.679688 30.800781 C 23.734375 30.964844 23.800781 31.171875 23.84375 31.3125 L 23.855469 31.3125 C 23.898438 31.160156 23.953125 30.964844 24.019531 30.792969 L 24.519531 29.3125 L 25.011719 29.3125 L 24.324219 31.105469 C 23.996094 31.964844 23.769531 32.410156 23.464844 32.683594 C 23.234375 32.878906 23.015625 32.953125 22.898438 32.976562 L 22.777344 32.597656 C 22.898438 32.5625 23.039062 32.488281 23.179688 32.367188 C 23.300781 32.269531 23.464844 32.097656 23.5625 31.855469 C 23.582031 31.8125 23.59375 31.769531 23.59375 31.75 C 23.59375 31.726562 23.582031 31.683594 23.5625 31.628906 L 22.625 29.300781 L 23.125 29.300781 Z M 23.125 29.3125 "/>
<path style=" stroke:none;fill-rule:nonzero;fill:rgb(21.176471%,66.27451%,88.235294%);fill-opacity:1;" d="M 1.917969 17.746094 C 1.949219 17.84375 1.984375 17.886719 1.984375 17.886719 Z M 1.917969 17.746094 "/>
<path style=" stroke:none;fill-rule:nonzero;fill:rgb(21.176471%,66.27451%,88.235294%);fill-opacity:1;" d="M 22.996094 3.273438 C 22.996094 3.273438 22.449219 1.839844 17.773438 2.253906 C 12.992188 2.675781 8.9375 4.710938 6.550781 6.144531 C 4.175781 7.578125 1.753906 9.546875 0.347656 12.65625 C 0 13.441406 0.542969 14.667969 0.542969 14.667969 L 1.917969 17.746094 C 1.667969 17.125 1.066406 14.472656 6.941406 10.210938 C 7.8125 9.578125 8.980469 8.773438 12.5 7.21875 C 12.828125 7.078125 13.152344 6.9375 13.480469 6.820312 L 13.46875 25.117188 L 18.035156 25.117188 L 18.023438 5.632812 C 19.269531 5.449219 20.195312 5.4375 20.585938 5.4375 C 23.410156 5.4375 24.410156 6.578125 24.726562 7.144531 Z M 22.996094 3.273438 "/>
</g>
</svg>
