<?xml version="1.0" encoding="UTF-8"?>
<svg xmlns="http://www.w3.org/2000/svg" xmlns:xlink="http://www.w3.org/1999/xlink" width="25px" height="16px" viewBox="0 0 25 16" version="1.1">
<g id="surface1">
<path style=" stroke:none;fill-rule:evenodd;fill:rgb(20%,20%,20%);fill-opacity:1;" d="M 24.710938 13.027344 C 24.707031 13.152344 23.488281 13.242188 21.488281 13.289062 L 21.355469 13.707031 C 21.332031 13.792969 21.304688 13.871094 21.269531 13.949219 C 21.203125 14.089844 21.164062 14.1875 21.117188 14.242188 C 21.066406 14.292969 20.074219 14.683594 18.894531 15.082031 C 17.6875 15.488281 16.335938 15.851562 16.335938 15.851562 C 16.496094 15.863281 13.285156 15.84375 10.054688 15.742188 C 8.65625 15.699219 7.269531 15.589844 6.125 15.542969 C 5.160156 15.503906 4.847656 15.421875 4.640625 15.238281 C 4.429688 15.054688 4.378906 14.886719 4.277344 14.285156 C 4.199219 13.84375 4.117188 13.359375 4.058594 13.007812 C 1.710938 12.878906 0.246094 12.734375 0.25 12.597656 C 0.25 12.464844 1.664062 12.371094 3.941406 12.324219 L 3.839844 11.703125 C 3.839844 11.703125 2.621094 4.507812 2.183594 1.566406 C 2.082031 0.859375 1.976562 0.140625 2.148438 0.0195312 C 2.324219 -0.101562 2.929688 0.476562 4.371094 1.539062 C 8.242188 4.386719 15.726562 9.953125 18.359375 12.066406 C 18.960938 12.550781 19.199219 12.773438 19.523438 12.753906 C 19.589844 12.75 19.726562 12.710938 19.886719 12.375 C 20.792969 10.472656 23.167969 4.863281 22.859375 4.699219 C 22.492188 4.5 21.554688 4.832031 20.199219 5.230469 C 18.992188 5.585938 17.722656 6.21875 17.722656 6.21875 C 17.722656 6.21875 18.328125 5.691406 19.296875 5.152344 C 21.09375 4.152344 23.820312 2.875 24.019531 3.109375 C 24.238281 3.359375 22.980469 8.082031 22.183594 10.933594 C 21.976562 11.671875 21.792969 12.285156 21.679688 12.664062 C 23.570312 12.78125 24.714844 12.910156 24.710938 13.027344 Z M 13.929688 9.242188 C 11.21875 7.289062 8.023438 5.207031 5.828125 3.648438 C 4.363281 2.605469 3.882812 2.289062 3.683594 2.449219 C 3.402344 2.679688 3.363281 3.53125 3.628906 5.539062 C 3.78125 6.6875 3.929688 8.0625 4.109375 9.304688 C 4.535156 12.230469 4.769531 14.066406 5.160156 14.304688 C 5.550781 14.542969 6.449219 14.699219 7.804688 14.566406 C 10.347656 14.3125 14.140625 13.726562 16.589844 13.367188 C 17.917969 13.171875 18.949219 13.066406 18.949219 13.066406 C 18.949219 13.066406 16.6875 11.226562 13.929688 9.242188 Z M 20.03125 13.8125 C 19.980469 13.648438 19.714844 13.464844 19.449219 13.417969 C 19.183594 13.371094 6.636719 15.144531 6.636719 15.144531 C 6.636719 15.144531 8.582031 15.3125 10.773438 15.390625 C 13.378906 15.480469 16.300781 15.488281 16.300781 15.488281 C 16.300781 15.488281 17.621094 15.167969 18.710938 14.777344 C 19.199219 14.605469 19.632812 14.371094 19.898438 14.21875 C 20.074219 14.117188 20.042969 13.863281 20.03125 13.8125 Z M 23.09375 5.753906 C 23.09375 5.753906 21.953125 8.554688 21.234375 10.382812 C 20.664062 11.839844 20.433594 12.492188 20.433594 12.492188 C 20.433594 12.492188 20.246094 12.9375 20.253906 13.152344 C 20.257812 13.339844 20.40625 13.449219 20.476562 13.519531 C 20.546875 13.589844 20.621094 13.648438 20.707031 13.695312 C 20.707031 13.695312 20.871094 13.792969 20.9375 13.617188 C 21.007812 13.441406 21.539062 12.039062 22.007812 10.199219 C 22.476562 8.34375 23.09375 5.753906 23.09375 5.753906 Z M 18.261719 10.363281 C 17.796875 9.398438 17.21875 8.007812 16.617188 6.8125 C 15.972656 5.535156 15.539062 4.527344 15.125 4.433594 C 14.871094 4.375 14.167969 5.113281 13.546875 5.769531 C 12.964844 6.378906 12.457031 6.898438 12.457031 6.898438 C 12.457031 6.898438 14.480469 3.167969 15.464844 3.195312 C 16.035156 3.207031 16.78125 4.988281 17.519531 7.03125 C 18.289062 9.144531 18.871094 11.519531 18.871094 11.519531 C 18.871094 11.519531 18.613281 11.101562 18.261719 10.363281 Z M 18.261719 10.363281 "/>
</g>
</svg>
