<svg width="13" height="13" viewBox="0 0 13 13" fill="none" xmlns="http://www.w3.org/2000/svg">
<path d="M6.19182 11.2363C5.55497 10.693 4.96467 10.0975 4.42708 9.45591C3.62035 8.49236 2.66235 7.05738 2.66235 5.68997C2.66164 4.26182 3.52165 2.974 4.84107 2.42744C6.1605 1.88088 7.67927 2.18332 8.68866 3.19363C9.35243 3.85445 9.72426 4.75335 9.7213 5.68997C9.7213 7.05738 8.76328 8.49236 7.95655 9.45591C7.41897 10.0975 6.82867 10.693 6.19182 11.2363ZM6.19182 4.17734C5.65141 4.17734 5.15205 4.46565 4.88184 4.93366C4.61164 5.40167 4.61164 5.97828 4.88184 6.44628C5.15205 6.91429 5.65141 7.2026 6.19182 7.2026C7.02722 7.2026 7.70444 6.52537 7.70444 5.68997C7.70444 4.85457 7.02722 4.17734 6.19182 4.17734Z" fill="#79819A"/>
</svg>
