<?xml version="1.0" encoding="UTF-8"?>
<svg xmlns="http://www.w3.org/2000/svg" xmlns:xlink="http://www.w3.org/1999/xlink" width="25px" height="29px" viewBox="0 0 25 28" version="1.1">
<g id="surface1">
<path style=" stroke:none;fill-rule:evenodd;fill:rgb(94.117647%,0%,0%);fill-opacity:1;" d="M 20.496094 8.636719 C 17.457031 7.414062 14.128906 6.742188 10.636719 6.742188 C 7.152344 6.742188 3.824219 7.414062 0.78125 8.636719 C -1.566406 16.046875 2.882812 26.078125 10.636719 28 C 18.394531 26.078125 22.84375 16.046875 20.496094 8.636719 Z M 12.828125 17.714844 C 13.507812 17.121094 13.9375 16.257812 13.9375 15.292969 C 13.9375 13.507812 12.460938 12.058594 10.636719 12.058594 C 8.816406 12.058594 7.339844 13.507812 7.339844 15.292969 C 7.339844 16.257812 7.769531 17.121094 8.449219 17.714844 L 7.898438 22.683594 C 8.773438 22.914062 9.691406 23.039062 10.636719 23.039062 C 11.585938 23.039062 12.507812 22.914062 13.378906 22.683594 Z M 12.828125 17.714844 "/>
<path style=" stroke:none;fill-rule:evenodd;fill:rgb(94.117647%,0%,0%);fill-opacity:1;" d="M 10.636719 6.742188 C 7.152344 6.742188 3.824219 7.414062 0.78125 8.636719 C -0.625 13.074219 0.40625 18.453125 3.125 22.464844 C 2.765625 15.878906 8.757812 12.484375 9.207031 12.378906 C 9.640625 12.171875 10.125 12.058594 10.636719 12.058594 C 11.152344 12.058594 11.636719 12.171875 12.070312 12.378906 C 12.519531 12.484375 18.507812 15.878906 18.152344 22.464844 C 20.871094 18.453125 21.902344 13.074219 20.496094 8.636719 C 17.457031 7.414062 14.128906 6.742188 10.636719 6.742188 Z M 10.636719 6.742188 "/>
<path style=" stroke:none;fill-rule:evenodd;fill:rgb(94.117647%,0%,0%);fill-opacity:1;" d="M 10.636719 23.039062 C 9.691406 23.039062 8.773438 22.914062 7.898438 22.683594 C 7.898438 22.683594 7.5 26.15625 8.320312 27.144531 C 9.054688 27.507812 9.828125 27.796875 10.636719 28 C 11.449219 27.800781 12.222656 27.511719 12.957031 27.144531 C 13.777344 26.15625 13.378906 22.683594 13.378906 22.683594 C 12.507812 22.914062 11.585938 23.039062 10.636719 23.039062 Z M 10.636719 23.039062 "/>
<path style=" stroke:none;fill-rule:evenodd;fill:rgb(94.117647%,0%,0%);fill-opacity:1;" d="M 0.386719 15.605469 C 2.675781 7.464844 18.601562 7.464844 20.886719 15.605469 C 21.289062 13.238281 21.1875 10.824219 20.496094 8.636719 C 17.457031 7.414062 14.128906 6.742188 10.636719 6.742188 C 7.152344 6.742188 3.824219 7.414062 0.78125 8.636719 C 0.0898438 10.824219 -0.0117188 13.238281 0.386719 15.605469 Z M 0.386719 15.605469 "/>
<path style=" stroke:none;fill-rule:evenodd;fill:rgb(94.117647%,0%,0%);fill-opacity:1;" d="M 12.070312 12.003906 C 11.636719 11.796875 11.152344 11.683594 10.636719 11.683594 C 10.125 11.683594 9.640625 11.796875 9.207031 12.003906 C 8.769531 12.109375 2.996094 15.375 3.113281 21.710938 C 3.222656 15.621094 8.777344 12.480469 9.207031 12.378906 C 9.640625 12.171875 10.125 12.058594 10.636719 12.058594 C 11.152344 12.058594 11.636719 12.171875 12.070312 12.378906 C 12.5 12.480469 18.050781 15.621094 18.164062 21.710938 C 18.28125 15.375 12.511719 12.109375 12.070312 12.003906 Z M 12.070312 12.003906 "/>
<path style=" stroke:none;fill-rule:nonzero;fill:rgb(100%,100%,100%);fill-opacity:1;" d="M 24.664062 6.175781 L 23.722656 5.21875 C 23.496094 4.992188 23.3125 4.546875 23.3125 4.226562 L 23.3125 2.875 C 23.3125 2.230469 22.796875 1.707031 22.160156 1.707031 L 20.828125 1.707031 C 20.511719 1.707031 20.066406 1.519531 19.84375 1.292969 L 18.898438 0.339844 C 18.453125 -0.113281 17.71875 -0.113281 17.269531 0.339844 L 16.328125 1.296875 C 16.101562 1.523438 15.660156 1.707031 15.34375 1.707031 L 14.007812 1.707031 C 13.375 1.707031 12.855469 2.230469 12.855469 2.875 L 12.855469 4.226562 C 12.855469 4.542969 12.671875 4.992188 12.449219 5.21875 L 11.507812 6.175781 C 11.058594 6.628906 11.058594 7.371094 11.507812 7.824219 L 12.449219 8.78125 C 12.675781 9.007812 12.855469 9.457031 12.855469 9.777344 L 12.855469 11.125 C 12.855469 11.765625 13.375 12.292969 14.007812 12.292969 L 15.34375 12.292969 C 15.660156 12.292969 16.101562 12.480469 16.328125 12.703125 L 17.269531 13.660156 C 17.71875 14.113281 18.453125 14.113281 18.898438 13.660156 L 19.84375 12.703125 C 20.066406 12.476562 20.511719 12.292969 20.828125 12.292969 L 22.160156 12.292969 C 22.796875 12.292969 23.3125 11.765625 23.3125 11.125 L 23.3125 9.777344 C 23.3125 9.453125 23.496094 9.007812 23.722656 8.78125 L 24.664062 7.824219 C 25.113281 7.371094 25.113281 6.628906 24.664062 6.175781 Z M 17.171875 9.625 L 14.628906 7.050781 L 15.441406 6.226562 L 17.171875 7.976562 L 20.726562 4.375 L 21.542969 5.199219 Z M 17.171875 9.625 "/>
<path style=" stroke:none;fill-rule:nonzero;fill:rgb(100%,100%,100%);fill-opacity:1;" d="M 23.652344 5.261719 L 22.855469 4.445312 C 22.664062 4.253906 22.507812 3.871094 22.507812 3.597656 L 22.507812 2.449219 C 22.507812 1.902344 22.070312 1.453125 21.535156 1.453125 L 20.40625 1.453125 C 20.136719 1.453125 19.761719 1.296875 19.574219 1.101562 L 18.773438 0.289062 C 18.394531 -0.0976562 17.773438 -0.0976562 17.394531 0.289062 L 16.597656 1.105469 C 16.40625 1.296875 16.03125 1.453125 15.765625 1.453125 L 14.636719 1.453125 C 14.101562 1.453125 13.660156 1.902344 13.660156 2.449219 L 13.660156 3.597656 C 13.660156 3.871094 13.507812 4.253906 13.316406 4.445312 L 12.519531 5.261719 C 12.140625 5.648438 12.140625 6.277344 12.519531 6.667969 L 13.316406 7.480469 C 13.507812 7.671875 13.660156 8.054688 13.660156 8.328125 L 13.660156 9.476562 C 13.660156 10.023438 14.101562 10.472656 14.636719 10.472656 L 15.765625 10.472656 C 16.035156 10.472656 16.40625 10.628906 16.597656 10.824219 L 17.394531 11.636719 C 17.773438 12.023438 18.394531 12.023438 18.773438 11.636719 L 19.574219 10.824219 C 19.761719 10.628906 20.136719 10.472656 20.40625 10.472656 L 21.535156 10.472656 C 22.070312 10.472656 22.507812 10.023438 22.507812 9.476562 L 22.507812 8.328125 C 22.507812 8.054688 22.664062 7.671875 22.855469 7.480469 L 23.652344 6.667969 C 24.03125 6.277344 24.03125 5.648438 23.652344 5.261719 Z M 17.3125 8.199219 L 15.160156 6.007812 L 15.847656 5.304688 L 17.3125 6.792969 L 20.320312 3.726562 L 21.011719 4.429688 Z M 17.3125 8.199219 "/>
<path style=" stroke:none;fill-rule:nonzero;fill:rgb(93.72549%,0%,0%);fill-opacity:1;" d="M 24.183594 6.070312 L 23.386719 5.289062 C 23.195312 5.105469 23.042969 4.742188 23.042969 4.480469 L 23.042969 3.378906 C 23.042969 2.855469 22.601562 2.429688 22.066406 2.429688 L 20.9375 2.429688 C 20.667969 2.429688 20.292969 2.277344 20.105469 2.09375 L 19.308594 1.3125 C 18.925781 0.945312 18.308594 0.945312 17.925781 1.3125 L 17.128906 2.09375 C 16.941406 2.277344 16.566406 2.429688 16.296875 2.429688 L 15.167969 2.429688 C 14.632812 2.429688 14.195312 2.855469 14.195312 3.378906 L 14.195312 4.480469 C 14.195312 4.738281 14.039062 5.105469 13.847656 5.289062 L 13.050781 6.070312 C 12.671875 6.4375 12.671875 7.042969 13.050781 7.414062 L 13.847656 8.191406 C 14.039062 8.375 14.195312 8.742188 14.195312 9.003906 L 14.195312 10.101562 C 14.195312 10.625 14.632812 11.054688 15.167969 11.054688 L 16.296875 11.054688 C 16.566406 11.054688 16.941406 11.203125 17.128906 11.390625 L 17.925781 12.167969 C 18.308594 12.535156 18.925781 12.535156 19.308594 12.167969 L 20.105469 11.390625 C 20.292969 11.203125 20.667969 11.054688 20.9375 11.054688 L 22.066406 11.054688 C 22.601562 11.054688 23.042969 10.625 23.042969 10.101562 L 23.042969 9.003906 C 23.042969 8.742188 23.195312 8.375 23.386719 8.191406 L 24.183594 7.414062 C 24.5625 7.042969 24.5625 6.4375 24.183594 6.070312 Z M 17.84375 8.878906 L 15.691406 6.78125 L 16.382812 6.109375 L 17.84375 7.535156 L 20.851562 4.601562 L 21.542969 5.273438 Z M 17.84375 8.878906 "/>
</g>
</svg>
