<?xml version="1.0" encoding="UTF-8"?>
<svg xmlns="http://www.w3.org/2000/svg" xmlns:xlink="http://www.w3.org/1999/xlink" width="25px" height="25px" viewBox="0 0 25 25" version="1.1">
<g id="surface1">
<path style=" stroke:none;fill-rule:nonzero;fill:rgb(13.333333%,72.156863%,68.627451%);fill-opacity:1;" d="M 9.449219 25 C 9.238281 25 9.058594 24.84375 9.035156 24.632812 L 8.582031 21 C 8.3125 20.894531 8.058594 20.769531 7.820312 20.625 C 7.582031 20.480469 7.347656 20.324219 7.121094 20.15625 L 3.757812 21.574219 C 3.566406 21.65625 3.339844 21.582031 3.238281 21.398438 L 0.183594 16.097656 C 0.078125 15.917969 0.125 15.6875 0.292969 15.558594 L 3.203125 13.34375 C 3.183594 13.199219 3.171875 13.058594 3.171875 12.921875 L 3.171875 12.078125 C 3.171875 11.941406 3.183594 11.800781 3.203125 11.65625 L 0.292969 9.441406 C 0.125 9.3125 0.078125 9.082031 0.183594 8.902344 L 3.238281 3.601562 C 3.339844 3.417969 3.566406 3.34375 3.757812 3.425781 L 7.121094 4.84375 C 7.347656 4.675781 7.585938 4.519531 7.835938 4.375 C 8.085938 4.230469 8.332031 4.105469 8.582031 4 L 9.035156 0.367188 C 9.058594 0.15625 9.238281 0 9.449219 0 L 15.550781 0 C 15.761719 0 15.941406 0.15625 15.964844 0.367188 L 16.417969 4 C 16.6875 4.105469 16.941406 4.230469 17.179688 4.375 C 17.417969 4.519531 17.652344 4.675781 17.878906 4.84375 L 21.242188 3.425781 C 21.433594 3.34375 21.660156 3.417969 21.761719 3.601562 L 24.816406 8.902344 C 24.921875 9.082031 24.875 9.3125 24.707031 9.441406 L 21.796875 11.65625 C 21.816406 11.800781 21.828125 11.941406 21.828125 12.078125 L 21.828125 12.921875 C 21.828125 13.058594 21.808594 13.199219 21.765625 13.34375 L 24.675781 15.558594 C 24.84375 15.6875 24.890625 15.917969 24.785156 16.097656 L 21.734375 21.398438 C 21.628906 21.582031 21.402344 21.65625 21.207031 21.574219 L 17.878906 20.15625 C 17.652344 20.324219 17.414062 20.480469 17.164062 20.625 C 16.914062 20.769531 16.667969 20.894531 16.417969 21 L 15.964844 24.632812 C 15.941406 24.84375 15.761719 25 15.550781 25 Z M 12.5625 16.875 C 13.765625 16.875 14.789062 16.449219 15.640625 15.59375 C 16.492188 14.738281 16.914062 13.707031 16.914062 12.5 C 16.914062 11.292969 16.492188 10.261719 15.640625 9.40625 C 14.789062 8.550781 13.765625 8.125 12.5625 8.125 C 11.339844 8.125 10.308594 8.550781 9.46875 9.40625 C 8.628906 10.261719 8.207031 11.292969 8.207031 12.5 C 8.207031 13.707031 8.628906 14.738281 9.46875 15.59375 C 10.308594 16.449219 11.339844 16.875 12.5625 16.875 Z M 12.5625 16.875 "/>
</g>
</svg>
