<?xml version="1.0" encoding="UTF-8"?>
<svg xmlns="http://www.w3.org/2000/svg" xmlns:xlink="http://www.w3.org/1999/xlink" width="33px" height="25px" viewBox="0 0 33 25" version="1.1">
<g id="surface1">
<path style=" stroke:none;fill-rule:nonzero;fill:rgb(81.176471%,39.215686%,60.392157%);fill-opacity:1;" d="M 28.398438 14.363281 C 27.246094 14.367188 26.246094 14.648438 25.40625 15.066406 C 25.097656 14.445312 24.789062 13.90625 24.738281 13.503906 C 24.679688 13.035156 24.609375 12.746094 24.679688 12.1875 C 24.75 11.628906 25.070312 10.832031 25.070312 10.769531 C 25.066406 10.710938 25 10.421875 24.335938 10.417969 C 23.671875 10.410156 23.101562 10.546875 23.035156 10.722656 C 22.972656 10.898438 22.84375 11.300781 22.757812 11.71875 C 22.640625 12.332031 21.429688 14.5 20.742188 15.636719 C 20.515625 15.195312 20.320312 14.804688 20.285156 14.492188 C 20.226562 14.023438 20.15625 13.738281 20.226562 13.175781 C 20.296875 12.617188 20.617188 11.824219 20.617188 11.757812 C 20.613281 11.699219 20.546875 11.414062 19.882812 11.40625 C 19.21875 11.398438 18.644531 11.535156 18.582031 11.710938 C 18.515625 11.886719 18.445312 12.304688 18.304688 12.707031 C 18.167969 13.113281 16.558594 16.730469 16.140625 17.675781 C 15.925781 18.15625 15.738281 18.542969 15.605469 18.800781 C 15.46875 19.0625 15.597656 18.820312 15.585938 18.847656 C 15.46875 19.070312 15.402344 19.191406 15.402344 19.191406 L 15.402344 19.199219 C 15.3125 19.363281 15.21875 19.519531 15.171875 19.519531 C 15.140625 19.519531 15.074219 19.082031 15.183594 18.484375 C 15.421875 17.226562 16.003906 15.265625 15.996094 15.195312 C 15.996094 15.164062 16.105469 14.816406 15.625 14.640625 C 15.152344 14.464844 14.984375 14.757812 14.945312 14.757812 C 14.90625 14.757812 14.875 14.863281 14.875 14.863281 C 14.875 14.863281 15.398438 12.65625 13.875 12.65625 C 12.921875 12.65625 11.609375 13.703125 10.957031 14.660156 C 10.542969 14.890625 9.667969 15.371094 8.738281 15.886719 C 8.386719 16.082031 8.019531 16.289062 7.667969 16.476562 L 7.597656 16.398438 C 5.753906 14.414062 2.347656 13.007812 2.488281 10.339844 C 2.539062 9.367188 2.875 6.808594 9.035156 3.710938 C 14.082031 1.171875 18.125 1.867188 18.828125 3.417969 C 19.824219 5.632812 16.667969 9.746094 11.421875 10.339844 C 9.421875 10.566406 8.371094 9.785156 8.109375 9.492188 C 7.832031 9.1875 7.792969 9.171875 7.6875 9.230469 C 7.523438 9.324219 7.625 9.597656 7.6875 9.757812 C 7.84375 10.167969 8.488281 10.898438 9.585938 11.261719 C 10.542969 11.582031 12.890625 11.757812 15.726562 10.652344 C 18.902344 9.40625 21.386719 5.957031 20.65625 3.074219 C 19.917969 0.136719 15.09375 -0.828125 10.539062 0.808594 C 7.824219 1.785156 4.886719 3.308594 2.773438 5.304688 C 0.257812 7.675781 -0.140625 9.746094 0.0273438 10.605469 C 0.613281 13.671875 4.796875 15.671875 6.472656 17.148438 C 6.386719 17.195312 6.308594 17.238281 6.238281 17.277344 C 5.402344 17.695312 2.210938 19.382812 1.410156 21.164062 C 0.507812 23.183594 1.554688 24.636719 2.25 24.832031 C 4.402344 25.4375 6.605469 24.347656 7.796875 22.558594 C 8.984375 20.769531 8.84375 18.445312 8.296875 17.382812 L 8.277344 17.34375 L 8.933594 16.953125 C 9.359375 16.699219 9.777344 16.464844 10.144531 16.261719 C 9.9375 16.828125 9.789062 17.5 9.714844 18.476562 C 9.621094 19.621094 10.085938 21.105469 10.699219 21.691406 C 10.96875 21.945312 11.292969 21.953125 11.492188 21.953125 C 12.199219 21.953125 12.523438 21.359375 12.878906 20.652344 C 13.316406 19.785156 13.703125 18.78125 13.703125 18.78125 C 13.703125 18.78125 13.21875 21.496094 14.539062 21.496094 C 15.023438 21.496094 15.507812 20.867188 15.726562 20.539062 L 15.726562 20.546875 C 15.726562 20.546875 15.738281 20.527344 15.765625 20.480469 C 15.792969 20.441406 15.816406 20.398438 15.84375 20.359375 L 15.84375 20.34375 C 16.035156 20.007812 16.46875 19.230469 17.113281 17.949219 C 17.945312 16.296875 18.742188 14.226562 18.742188 14.226562 C 18.742188 14.226562 18.820312 14.734375 19.058594 15.566406 C 19.199219 16.0625 19.511719 16.601562 19.75 17.128906 C 19.554688 17.402344 19.4375 17.558594 19.4375 17.558594 L 19.445312 17.566406 C 19.289062 17.773438 19.117188 17.996094 18.9375 18.214844 C 18.277344 19.011719 17.492188 19.914062 17.390625 20.175781 C 17.265625 20.480469 17.292969 20.710938 17.53125 20.890625 C 17.707031 21.023438 18.015625 21.046875 18.34375 21.023438 C 18.9375 20.984375 19.347656 20.832031 19.554688 20.742188 C 19.878906 20.625 20.246094 20.449219 20.597656 20.1875 C 21.242188 19.707031 21.636719 19.023438 21.597656 18.113281 C 21.578125 17.609375 21.417969 17.117188 21.21875 16.648438 C 21.277344 16.5625 21.335938 16.476562 21.390625 16.386719 C 22.410156 14.882812 23.195312 13.230469 23.195312 13.230469 C 23.195312 13.230469 23.273438 13.738281 23.511719 14.570312 C 23.636719 14.992188 23.878906 15.457031 24.097656 15.910156 C 23.144531 16.699219 22.546875 17.609375 22.339844 18.210938 C 21.960938 19.316406 22.253906 19.816406 22.816406 19.933594 C 23.066406 19.988281 23.429688 19.871094 23.699219 19.753906 C 24.035156 19.640625 24.441406 19.453125 24.8125 19.171875 C 25.460938 18.691406 26.078125 18.019531 26.046875 17.117188 C 26.027344 16.699219 25.917969 16.289062 25.769531 15.898438 C 26.582031 15.558594 27.632812 15.363281 28.964844 15.527344 C 31.832031 15.867188 32.402344 17.675781 32.292969 18.429688 C 32.179688 19.1875 31.582031 19.601562 31.382812 19.734375 C 31.183594 19.855469 31.117188 19.902344 31.136719 19.992188 C 31.164062 20.128906 31.253906 20.125 31.425781 20.097656 C 31.664062 20.058594 32.9375 19.480469 32.988281 18.085938 C 33.0625 16.296875 31.382812 14.34375 28.398438 14.363281 Z M 6.277344 21.894531 C 5.332031 22.941406 3.996094 23.339844 3.429688 23 C 2.816406 22.644531 3.054688 21.101562 4.222656 19.988281 C 4.929688 19.308594 5.851562 18.683594 6.457031 18.300781 C 6.59375 18.214844 6.800781 18.09375 7.042969 17.941406 C 7.082031 17.917969 7.109375 17.902344 7.109375 17.902344 C 7.15625 17.878906 7.207031 17.84375 7.257812 17.8125 C 7.6875 19.402344 7.277344 20.792969 6.277344 21.894531 Z M 13.207031 17.136719 C 12.878906 17.949219 12.179688 20.039062 11.761719 19.921875 C 11.402344 19.824219 11.183594 18.242188 11.691406 16.679688 C 11.949219 15.890625 12.496094 14.953125 12.820312 14.589844 C 13.34375 14.003906 13.910156 13.808594 14.050781 14.050781 C 14.21875 14.363281 13.414062 16.628906 13.207031 17.136719 Z M 18.921875 19.894531 C 18.78125 19.96875 18.652344 20.019531 18.59375 19.980469 C 18.550781 19.953125 18.652344 19.855469 18.652344 19.855469 C 18.652344 19.855469 19.367188 19.082031 19.652344 18.722656 C 19.8125 18.515625 20.007812 18.273438 20.210938 18 L 20.210938 18.078125 C 20.210938 19.015625 19.324219 19.640625 18.921875 19.894531 Z M 23.332031 18.878906 C 23.230469 18.800781 23.242188 18.5625 23.589844 17.804688 C 23.726562 17.507812 24.035156 17.003906 24.570312 16.53125 C 24.632812 16.726562 24.671875 16.914062 24.667969 17.089844 C 24.660156 18.261719 23.835938 18.699219 23.332031 18.878906 Z M 23.332031 18.878906 "/>
</g>
</svg>
