<?xml version="1.0" encoding="UTF-8"?>
<svg xmlns="http://www.w3.org/2000/svg" xmlns:xlink="http://www.w3.org/1999/xlink" width="25px" height="25px" viewBox="0 0 25 25" version="1.1">
<g id="surface1">
<path style=" stroke:none;fill-rule:nonzero;fill:rgb(14.117647%,53.72549%,79.215686%);fill-opacity:1;" d="M 0.714844 8.9375 C 0.714844 8.9375 0.121094 8.503906 0.832031 7.921875 L 2.488281 6.414062 C 2.488281 6.414062 2.960938 5.910156 3.460938 6.351562 L 18.730469 18.121094 L 18.730469 23.765625 C 18.730469 23.765625 18.722656 24.652344 17.605469 24.554688 Z M 0.714844 8.9375 "/>
<path style=" stroke:none;fill-rule:nonzero;fill:rgb(6.27451%,43.921569%,70.196078%);fill-opacity:1;" d="M 4.648438 12.574219 L 0.714844 16.21875 C 0.714844 16.21875 0.308594 16.523438 0.714844 17.074219 L 2.542969 18.765625 C 2.542969 18.765625 2.976562 19.238281 3.617188 18.699219 L 7.789062 15.476562 Z M 4.648438 12.574219 "/>
<path style=" stroke:none;fill-rule:nonzero;fill:rgb(3.137255%,46.666667%,72.54902%);fill-opacity:1;" d="M 11.558594 12.605469 L 18.777344 6.992188 L 18.730469 1.378906 C 18.730469 1.378906 18.421875 0.152344 17.394531 0.789062 L 7.789062 9.691406 Z M 11.558594 12.605469 "/>
<path style=" stroke:none;fill-rule:nonzero;fill:rgb(23.529412%,60%,83.137255%);fill-opacity:1;" d="M 17.605469 24.5625 C 18.023438 25 18.53125 24.855469 18.53125 24.855469 L 24.15625 22.035156 C 24.878906 21.535156 24.777344 20.914062 24.777344 20.914062 L 24.777344 4.058594 C 24.777344 3.320312 24.03125 3.0625 24.03125 3.0625 L 19.15625 0.671875 C 18.089844 0 17.394531 0.789062 17.394531 0.789062 C 17.394531 0.789062 18.292969 0.132812 18.730469 1.378906 L 18.730469 23.664062 C 18.730469 23.816406 18.699219 23.96875 18.632812 24.105469 C 18.503906 24.367188 18.226562 24.613281 17.558594 24.511719 Z M 17.605469 24.5625 "/>
</g>
</svg>
