<?xml version="1.0" encoding="UTF-8"?>
<svg xmlns="http://www.w3.org/2000/svg" xmlns:xlink="http://www.w3.org/1999/xlink" width="25px" height="25px" viewBox="0 0 25 25" version="1.1">
<g id="surface1">
<path style=" stroke:none;fill-rule:nonzero;fill:rgb(100%,100%,100%);fill-opacity:1;" d="M 12.5 0 L 23.546875 6.25 L 23.546875 18.75 L 12.5 25 L 1.453125 18.75 L 1.453125 6.25 Z M 12.5 0 "/>
<path style=" stroke:none;fill-rule:nonzero;fill:rgb(55.686275%,83.921569%,98.431373%);fill-opacity:1;" d="M 21.574219 18.320312 L 12.863281 23.246094 L 12.863281 19.410156 L 18.292969 16.421875 Z M 22.171875 17.777344 L 22.171875 7.476562 L 18.984375 9.316406 L 18.984375 15.9375 Z M 3.390625 18.320312 L 12.101562 23.246094 L 12.101562 19.410156 L 6.671875 16.421875 Z M 2.792969 17.777344 L 2.792969 7.476562 L 5.980469 9.316406 L 5.980469 15.9375 Z M 3.167969 6.808594 L 12.101562 1.753906 L 12.101562 5.464844 L 6.378906 8.613281 L 6.332031 8.636719 Z M 21.796875 6.808594 L 12.863281 1.753906 L 12.863281 5.464844 L 18.585938 8.613281 L 18.632812 8.636719 Z M 21.796875 6.808594 "/>
<path style=" stroke:none;fill-rule:nonzero;fill:rgb(10.980392%,47.058824%,75.294118%);fill-opacity:1;" d="M 12.101562 18.535156 L 6.746094 15.589844 L 6.746094 9.757812 L 12.101562 12.851562 L 12.101562 18.535156 M 12.863281 18.535156 L 18.21875 15.589844 L 18.21875 9.757812 L 12.863281 12.851562 L 12.863281 18.535156 M 7.109375 9.082031 L 12.484375 6.128906 L 17.859375 9.082031 L 12.484375 12.1875 L 7.109375 9.082031 "/>
</g>
</svg>
